<svg width="24" height="24" fill="none" xmlns="http://www.w3.org/2000/svg"><path d="M14.172 19.1l-.035.034c-2.548 2.488-6.679 2.488-9.226 0a6.266 6.266 0 010-9.01l.026-.025 5.905-5.766L12.16 5.62l-5.931 5.792a4.475 4.475 0 000 6.435c1.82 1.777 4.77 1.777 6.59 0l6.59-6.436a.948.948 0 011.318 0 .895.895 0 010 1.287L14.172 19.1z" fill="#2B2F33"/><path d="M10.183 15.273l5.931-5.792a2.685 2.685 0 000-3.861 2.844 2.844 0 00-3.954 0l-1.318-1.287c1.82-1.777 4.77-1.777 6.59 0a4.475 4.475 0 010 6.435l-.013.013-5.918 5.779a2.844 2.844 0 01-3.954 0 2.685 2.685 0 010-3.861l4.613-4.505a.948.948 0 011.318 0 .895.895 0 010 1.287l-4.613 4.505a.895.895 0 000 1.287.948.948 0 001.318 0z" fill="#2B2F33"/></svg>