<svg width="12" height="14" fill="none" xmlns="http://www.w3.org/2000/svg"><path d="M6.041 13.089c-1.68 0-2.982-.48-3.906-1.44C1.223 10.689.767 9.32.767 7.545V5.619c0-1.776.456-3.138 1.368-4.086C3.047.573 4.35.093 6.041.093c1.68 0 2.97.48 3.87 1.44.912.948 1.368 2.31 1.368 4.086v1.926c0 1.776-.456 3.144-1.368 4.104-.9.96-2.19 1.44-3.87 1.44zm0-.63c1.476 0 2.604-.42 3.384-1.26.792-.852 1.188-2.07 1.188-3.654V5.619c0-1.584-.396-2.796-1.188-3.636-.78-.84-1.908-1.26-3.384-1.26-1.488 0-2.628.42-3.42 1.26-.792.84-1.188 2.052-1.188 3.636v1.926c0 1.584.396 2.802 1.188 3.654.792.84 1.932 1.26 3.42 1.26zm-.018-2.232c-.684 0-1.23-.216-1.638-.648-.408-.444-.612-1.044-.612-1.8V5.42c0-.78.198-1.386.594-1.818.408-.444.954-.666 1.638-.666.66 0 1.194.21 1.602.63.408.42.612.996.612 1.728h-.684c0-.54-.138-.954-.414-1.242-.276-.288-.648-.432-1.116-.432-.468 0-.84.156-1.116.468-.276.312-.414.756-.414 1.332v2.358c0 .576.138 1.014.414 1.314.276.3.654.45 1.134.45.468 0 .846-.144 1.134-.432.288-.3.432-.714.432-1.242h.702c0 .732-.21 1.308-.63 1.728-.42.42-.966.63-1.638.63z" fill="#282828"/></svg>