<svg width="24" height="25" fill="none" xmlns="http://www.w3.org/2000/svg"><path fill-rule="evenodd" clip-rule="evenodd" d="M14.83 11.114a3.95 3.95 0 01-5.603 0 3.95 3.95 0 010-5.604 3.95 3.95 0 015.604 0 3.952 3.952 0 010 5.604zm-2.8-4.615c-.494 0-.942.2-1.271.53a1.79 1.79 0 000 2.542 1.789 1.789 0 002.543 0 1.788 1.788 0 000-2.543 1.839 1.839 0 00-1.272-.53zm4.168 5.792l1.166 1.59c.059.082.047.188-.036.247a8.2 8.2 0 01-3.308 1.613l2.249 4.332c.059.13-.024.27-.165.27H13.7a.205.205 0 01-.176-.117l-1.496-3.58-1.507 3.568a.181.181 0 01-.176.118H7.944c-.141 0-.224-.153-.165-.27l2.249-4.321a8.261 8.261 0 01-3.308-1.613c-.071-.06-.095-.177-.036-.248l1.166-1.59c.07-.093.188-.105.27-.034 1.096.93 2.45 1.542 3.898 1.542s2.79-.6 3.897-1.542c.094-.07.223-.06.282.035z" fill="#fff"/></svg>