<svg width="25" height="24" fill="none" xmlns="http://www.w3.org/2000/svg"><path d="M8.455 21.5h.335l.128-.31h0v-.001l.002-.005.01-.022a15.142 15.142 0 01.18-.419c.128-.287.317-.7.559-1.195a36.453 36.453 0 012.02-3.626c.846-1.32 1.83-2.615 2.888-3.576 1.066-.968 2.147-1.542 3.196-1.542h.415l.076-.408c.378-2.018.305-3.508-.241-4.621-.557-1.134-1.555-1.776-2.782-2.21-.488-.172-.964-.03-1.366.22-.399.247-.787.635-1.158 1.088-.745.908-1.516 2.194-2.255 3.516-.344.615-.676 1.23-.999 1.827-.385.711-.755 1.397-1.114 2.025a20.354 20.354 0 01-.9 1.461c-.281.405-.506.661-.669.783-.483.362-.872.71-1.214 1.028-.1.092-.193.18-.283.266-.225.212-.427.403-.638.582-.559.475-1.133.827-2.117 1.013-.656.124-1.132.434-1.456.846-.315.402-.462.872-.526 1.29a4.768 4.768 0 00.044 1.56l.006.03.002.01.001.002v.002h0L1.088 21l-.487.113.09.387h7.764z" stroke="#B2B2B2"/></svg>