<svg width="18" height="18" fill="none" xmlns="http://www.w3.org/2000/svg"><g clip-path="url(#clip0_795_17087)"><path d="M13.284 12.209c2.392-2.907 2.236-7.29-.492-10.018-2.907-2.907-7.67-2.907-10.577 0s-2.907 7.67 0 10.577a7.412 7.412 0 005.277 2.169 7.537 7.537 0 004.74-1.677l4.517 4.516a.714.714 0 00.515.224.68.68 0 00.514-.224c.29-.29.29-.738 0-1.05l-4.494-4.517zm-10.018-.515C.941 9.37.941 5.568 3.266 3.242a5.962 5.962 0 014.226-1.766 5.96 5.96 0 014.226 1.766c2.326 2.326 2.326 6.127 0 8.452a5.952 5.952 0 01-8.452 0z" fill="#fff"/></g><defs><clipPath id="clip0_795_17087"><path fill="#fff" d="M0 0h18v18H0z"/></clipPath></defs></svg>