<svg width="24" height="25" fill="none" xmlns="http://www.w3.org/2000/svg"><g clip-path="url(#clip0_619_26470)"><path d="M0 12.344c0-6.628 5.373-12 12-12s12 5.372 12 12c0 6.627-5.373 12-12 12s-12-5.373-12-12z" fill="#64A9DC"/><path fill-rule="evenodd" clip-rule="evenodd" d="M18.92 6.433L4.747 11.899c-.967.388-.962.928-.176 1.168l3.534 1.104 1.353 4.146c.164.454.083.634.56.634.368 0 .53-.168.736-.368l1.767-1.72 3.677 2.718c.676.373 1.165.18 1.333-.628l2.414-11.374c.247-.99-.378-1.44-1.025-1.146zM8.66 13.917l7.967-5.026c.398-.242.763-.112.463.154L10.268 15.2l-.265 2.833-1.343-4.116z" fill="#fff"/></g><defs><clipPath id="clip0_619_26470"><path fill="#fff" transform="translate(0 .344)" d="M0 0h24v24H0z"/></clipPath></defs></svg>