<svg width="24" height="25" fill="none" xmlns="http://www.w3.org/2000/svg"><g clip-path="url(#clip0_619_26474)"><path d="M0 12.344c0-6.628 5.373-12 12-12s12 5.372 12 12c0 6.627-5.373 12-12 12s-12-5.373-12-12z" fill="#07F"/><path d="M12.878 17.648c-5.411 0-8.695-3.755-8.823-9.994h2.74c.086 4.583 2.17 6.528 3.77 6.925V7.654h2.627v3.954c1.542-.17 3.155-1.97 3.698-3.954h2.584c-.414 2.44-2.17 4.24-3.412 4.983 1.242.6 3.24 2.17 4.01 5.01h-2.84c-.6-1.898-2.07-3.37-4.04-3.57v3.57h-.314z" fill="#fff"/></g><defs><clipPath id="clip0_619_26474"><path fill="#fff" transform="translate(0 .344)" d="M0 0h24v24H0z"/></clipPath></defs></svg>