<svg width="32" height="32" fill="none" xmlns="http://www.w3.org/2000/svg"><rect width="32" height="32" rx="16" fill="#F2822E"/><path d="M9.447 20.9l-1.568-3.71-1.582 3.71H4.729l2.338-5.082L4.869 11.1h1.554l1.456 3.388L9.32 11.1h1.553l-2.211 4.718L11 20.9H9.447z" fill="#fff"/><path d="M15.173 20.9l-1.568-3.71-1.582 3.71h-1.568l2.338-5.082-2.198-4.718h1.554l1.456 3.388 1.442-3.388h1.554l-2.212 4.718 2.338 5.082h-1.554z" fill="#fff"/><path d="M20.9 20.9l-1.568-3.71-1.582 3.71h-1.568l2.338-5.082-2.198-4.718h1.554l1.456 3.388 1.442-3.388h1.554l-2.212 4.718 2.338 5.082H20.9zm6.371-1.344V20.9H22.61v-9.8h1.414v8.456h3.248z" fill="#fff"/></svg>